# xmcd
#
# Track frame offsets:
# 150
# 11798
# 21763
# 33403
# 44559
# 56421
# 67346
# 79231
# 88789
# 99636
# 109818
# 119940
#
# Disc length: 1745 seconds
#
#
# Revision: 0
# Processed by: cddbd v1.5.2PL0 Copyright (c) Steve Scherf et al.
# Submitted via: FreeRIP 2.945 
#
DISCID=ad06cf0c
DTITLE=Bill Anderson - Showcase
DYEAR=1900
DGENRE=Country
TTITLE0=You Can Have Her
TTITLE1=Me
TTITLE2=In The Misty Moonlight
TTITLE3=Then I'll Stop Loving You
TTITLE4=Memory # 1
TTITLE5=I'll Be Somewhere
TTITLE6=Three A.M.
TTITLE7=Worry
TTITLE8=In Case You Ever Change
TTITLE9=I Love You More And More
TTITLE10=Cncinnati, Ohio
TTITLE11=Then And Only Then
EXTD=
EXTT0=
EXTT1=
EXTT2=
EXTT3=
EXTT4=
EXTT5=
EXTT6=
EXTT7=
EXTT8=
EXTT9=
EXTT10=
EXTT11=
PLAYORDER=
